<?xml version="1.0" standalone="no"?>
<!DOCTYPE svg PUBLIC "-//W3C//DTD SVG 20010904//EN"
 "http://www.w3.org/TR/2001/REC-SVG-20010904/DTD/svg10.dtd">
<svg version="1.0" xmlns="http://www.w3.org/2000/svg"
 width="47.000000pt" height="48.000000pt" viewBox="0 0 47.000000 48.000000"
 preserveAspectRatio="xMidYMid meet">

<g transform="translate(0.000000,48.000000) scale(0.100000,-0.100000)"
fill="#000000" stroke="none">
<path d="M0 240 l0 -240 235 0 235 0 0 240 0 240 -235 0 -235 0 0 -240z m168
73 c9 -15 13 -15 54 0 66 26 80 20 21 -8 -51 -23 -53 -25 -41 -50 11 -24 13
-24 21 -8 17 32 50 63 67 63 26 0 40 -44 39 -118 l-2 -67 -7 60 c-8 70 -18
105 -30 105 -11 0 -48 -46 -55 -71 -9 -28 -31 -23 -45 11 -7 17 -15 30 -18 30
-10 0 -31 -35 -32 -52 0 -10 -5 -18 -11 -18 -10 0 -6 76 7 123 7 22 20 22 32
0z"/>
</g>
</svg>
